<svg id="Capa_1" enable-background="new 0 0 512 512" height="512" viewBox="0 0 512 512" width="512" xmlns="http://www.w3.org/2000/svg"><g><g><path d="m199.493 68.19h113.014v15.453h-113.014z" fill="#9dc6fb"/><g><circle cx="184.402" cy="75.916" fill="#ecbe6b" r="22.818"/><path d="m191.091 97.741c-2.111.645-4.362.994-6.688.994-12.602 0-22.82-10.218-22.82-22.82s10.218-22.82 22.82-22.82c2.326 0 4.577.349 6.688.994-9.334 2.861-16.12 11.549-16.12 21.825 0 10.278 6.786 18.966 16.12 21.827z" fill="#eab14d"/></g><g><circle cx="327.598" cy="75.916" fill="#e28086" r="22.818"/><path d="m334.288 97.741c-2.111.645-4.362.994-6.688.994-12.602 0-22.82-10.218-22.82-22.82s10.218-22.82 22.82-22.82c2.326 0 4.577.349 6.688.994-9.334 2.861-16.12 11.549-16.12 21.825-.001 10.278 6.786 18.966 16.12 21.827z" fill="#dd636e"/></g></g><g><path d="m199.493 195.177h113.014v15.453h-113.014z" fill="#9dc6fb"/><g><circle cx="184.402" cy="202.904" fill="#ecbe6b" r="22.818"/><path d="m191.091 224.729c-2.111.645-4.362.994-6.688.994-12.602 0-22.82-10.218-22.82-22.82s10.218-22.82 22.82-22.82c2.326 0 4.577.349 6.688.994-9.334 2.861-16.12 11.549-16.12 21.825 0 10.278 6.786 18.966 16.12 21.827z" fill="#eab14d"/></g><g><circle cx="327.598" cy="202.904" fill="#e28086" r="22.818"/><path d="m334.288 224.729c-2.111.645-4.362.994-6.688.994-12.602 0-22.82-10.218-22.82-22.82s10.218-22.82 22.82-22.82c2.326 0 4.577.349 6.688.994-9.334 2.861-16.12 11.549-16.12 21.825-.001 10.278 6.786 18.966 16.12 21.827z" fill="#dd636e"/></g></g><g><path d="m144.164 131.684h223.672v15.453h-223.672z" fill="#9dc6fb"/><g><circle cx="129.072" cy="139.41" fill="#ecbe6b" r="22.818"/><path d="m135.762 161.235c-2.111.645-4.362.994-6.688.994-12.602 0-22.82-10.218-22.82-22.82s10.218-22.82 22.82-22.82c2.326 0 4.577.349 6.688.994-9.334 2.861-16.12 11.549-16.12 21.825-.001 10.278 6.786 18.966 16.12 21.827z" fill="#eab14d"/></g><g><circle cx="382.928" cy="139.41" fill="#e28086" r="22.818"/><path d="m389.617 161.235c-2.111.645-4.362.994-6.688.994-12.602 0-22.82-10.218-22.82-22.82s10.218-22.82 22.82-22.82c2.326 0 4.577.349 6.688.994-9.334 2.861-16.12 11.549-16.12 21.825 0 10.278 6.786 18.966 16.12 21.827z" fill="#dd636e"/></g></g><g><circle cx="256" cy="256" fill="#ecbe6b" r="22.818"/><path d="m262.689 277.825c-2.111.645-4.362.994-6.688.994-12.602 0-22.82-10.218-22.82-22.82s10.218-22.82 22.82-22.82c2.326 0 4.577.349 6.688.994-9.334 2.861-16.12 11.549-16.12 21.825 0 10.278 6.787 18.966 16.12 21.827z" fill="#eab14d"/></g><g><circle cx="256" cy="22.82" fill="#e28086" r="22.818"/><path d="m262.689 44.645c-2.111.645-4.362.994-6.688.994-12.602 0-22.82-10.218-22.82-22.82.001-12.601 10.219-22.819 22.821-22.819 2.326 0 4.577.349 6.688.994-9.334 2.861-16.12 11.549-16.12 21.825-.001 10.277 6.786 18.965 16.119 21.826z" fill="#dd636e"/></g><g><path d="m199.493 301.37h113.014v15.453h-113.014z" fill="#9dc6fb"/><g><circle cx="184.402" cy="309.096" fill="#e28086" r="22.818"/><path d="m191.091 330.922c-2.111.645-4.362.994-6.688.994-12.602 0-22.82-10.218-22.82-22.82s10.218-22.82 22.82-22.82c2.326 0 4.577.349 6.688.994-9.334 2.861-16.12 11.549-16.12 21.825 0 10.277 6.786 18.965 16.12 21.827z" fill="#dd636e"/></g><g><circle cx="327.598" cy="309.096" fill="#ecbe6b" r="22.818"/><path d="m334.288 330.922c-2.111.645-4.362.994-6.688.994-12.602 0-22.82-10.218-22.82-22.82s10.218-22.82 22.82-22.82c2.326 0 4.577.349 6.688.994-9.334 2.861-16.12 11.549-16.12 21.825-.001 10.277 6.786 18.965 16.12 21.827z" fill="#eab14d"/></g></g><g><path d="m199.493 428.358h113.014v15.453h-113.014z" fill="#9dc6fb"/><g><circle cx="184.402" cy="436.084" fill="#e28086" r="22.818"/><path d="m191.091 457.909c-2.111.645-4.362.994-6.688.994-12.602 0-22.82-10.218-22.82-22.82s10.218-22.82 22.82-22.82c2.326 0 4.577.349 6.688.994-9.334 2.861-16.12 11.549-16.12 21.825 0 10.278 6.786 18.966 16.12 21.827z" fill="#dd636e"/></g><g><circle cx="327.598" cy="436.084" fill="#ecbe6b" r="22.818"/><path d="m334.288 457.909c-2.111.645-4.362.994-6.688.994-12.602 0-22.82-10.218-22.82-22.82s10.218-22.82 22.82-22.82c2.326 0 4.577.349 6.688.994-9.334 2.861-16.12 11.549-16.12 21.825-.001 10.278 6.786 18.966 16.12 21.827z" fill="#eab14d"/></g></g><g><path d="m144.164 364.864h223.672v15.453h-223.672z" fill="#9dc6fb"/><g><circle cx="129.072" cy="372.59" fill="#e28086" r="22.818"/><path d="m135.762 394.415c-2.111.645-4.362.994-6.688.994-12.602 0-22.82-10.218-22.82-22.82s10.218-22.82 22.82-22.82c2.326 0 4.577.349 6.688.994-9.334 2.861-16.12 11.549-16.12 21.825-.001 10.278 6.786 18.966 16.12 21.827z" fill="#dd636e"/></g><g><circle cx="382.928" cy="372.59" fill="#ecbe6b" r="22.818"/><path d="m389.617 394.415c-2.111.645-4.362.994-6.688.994-12.602 0-22.82-10.218-22.82-22.82s10.218-22.82 22.82-22.82c2.326 0 4.577.349 6.688.994-9.334 2.861-16.12 11.549-16.12 21.825 0 10.278 6.786 18.966 16.12 21.827z" fill="#eab14d"/></g></g><g><circle cx="256" cy="489.18" fill="#ecbe6b" r="22.818"/><path d="m262.689 511.006c-2.111.645-4.362.994-6.688.994-12.602 0-22.82-10.218-22.82-22.82s10.218-22.82 22.82-22.82c2.326 0 4.577.349 6.688.994-9.334 2.861-16.12 11.549-16.12 21.825 0 10.277 6.787 18.965 16.12 21.827z" fill="#eab14d"/></g></g></svg>