<?xml version="1.0"?>
<svg xmlns="http://www.w3.org/2000/svg" xmlns:xlink="http://www.w3.org/1999/xlink" xmlns:svgjs="http://svgjs.com/svgjs" version="1.1" width="512" height="512" x="0" y="0" viewBox="0 0 504.5 504.5" style="enable-background:new 0 0 512 512" xml:space="preserve" class=""><g><g xmlns="http://www.w3.org/2000/svg"><path d="m219.8 250.93v142.17l-13.08 4.09-29.13 9.1-42.21-13.19v-142.17c0-7.68 6.23-13.91 13.92-13.91h56.58c7.69 0 13.92 6.23 13.92 13.91z" fill="#6ed5a1" data-original="#6ed5a1" style="" class=""/><path d="m219.8 250.93v142.17l-13.08 4.09-14.51-4.09v-142.17c0-7.68-6.23-13.91-13.92-13.91h27.59c7.69 0 13.92 6.23 13.92 13.91z" fill="#46cc8d" data-original="#46cc8d" style="" class=""/><path d="m343.94 118.1v275l-19.45 4-22.76 4.68-42.21-8.68v-275c0-7.69 6.23-13.92 13.92-13.92h56.59c7.68 0 13.91 6.23 13.91 13.92z" fill="#58cbe9" data-original="#ffe177" style="" class=""/><path d="m343.94 118.1v275l-19.45 4-8.14-4v-275c0-7.69-6.23-13.92-13.92-13.92h27.6c7.68 0 13.91 6.23 13.91 13.92z" fill="#81b0d9" data-original="#ffd15b" style="" class=""/><path d="m468.08 206.44v186.66l-17.79 3.72-23.71 4.96-42.91-8.68v-186.66c0-7.68 6.23-13.91 13.91-13.91h56.59c7.68 0 13.91 6.23 13.91 13.91z" fill="#fb5f7a" data-original="#fb5f7a" style="" class=""/><path d="m468.08 206.44v186.66l-17.79 3.72-9.8-3.72v-186.66c0-7.68-6.23-13.91-13.91-13.91h27.59c7.68 0 13.91 6.23 13.91 13.91z" fill="#f74455" data-original="#f74455" style="" class=""/><g><path d="m177.59 461.196c-4.142 0-7.5-3.357-7.5-7.5v-30.8c0-4.143 3.358-7.5 7.5-7.5s7.5 3.357 7.5 7.5v30.8c0 4.143-3.358 7.5-7.5 7.5z" fill="#eaf6ff" data-original="#eaf6ff" style="" class=""/></g><g><path d="m301.732 461.196c-4.142 0-7.5-3.357-7.5-7.5v-30.8c0-4.143 3.358-7.5 7.5-7.5s7.5 3.357 7.5 7.5v30.8c0 4.143-3.358 7.5-7.5 7.5z" fill="#eaf6ff" data-original="#eaf6ff" style="" class=""/></g><g><path d="m425.875 461.196c-4.142 0-7.5-3.357-7.5-7.5v-30.8c0-4.143 3.358-7.5 7.5-7.5s7.5 3.357 7.5 7.5v30.8c0 4.143-3.357 7.5-7.5 7.5z" fill="#eaf6ff" data-original="#eaf6ff" style="" class=""/></g><g><path d="m38.965 65.803h-31.465c-4.142 0-7.5-3.357-7.5-7.5s3.358-7.5 7.5-7.5h31.465c4.142 0 7.5 3.357 7.5 7.5s-3.358 7.5-7.5 7.5z" fill="#eaf6ff" data-original="#eaf6ff" style="" class=""/></g><g><path d="m38.965 158.91h-31.465c-4.142 0-7.5-3.357-7.5-7.5s3.358-7.5 7.5-7.5h31.465c4.142 0 7.5 3.357 7.5 7.5s-3.358 7.5-7.5 7.5z" fill="#eaf6ff" data-original="#eaf6ff" style="" class=""/></g><g><path d="m38.965 252.017h-31.465c-4.142 0-7.5-3.357-7.5-7.5s3.358-7.5 7.5-7.5h31.465c4.142 0 7.5 3.357 7.5 7.5s-3.358 7.5-7.5 7.5z" fill="#eaf6ff" data-original="#eaf6ff" style="" class=""/></g><g><path d="m38.965 345.125h-31.465c-4.142 0-7.5-3.357-7.5-7.5s3.358-7.5 7.5-7.5h31.465c4.142 0 7.5 3.357 7.5 7.5s-3.358 7.5-7.5 7.5z" fill="#eaf6ff" data-original="#eaf6ff" style="" class=""/></g><path d="m69.101 383.563v-320.961c0-6.516-5.282-11.798-11.798-11.798h-18.338v349.228c0 12.813 10.387 23.201 23.201 23.201h430.536c6.516 0 11.798-5.282 11.798-11.798v-6.539c0-6.516-5.282-11.798-11.798-11.798h-414.069c-5.265-.002-9.532-4.27-9.532-9.535z" fill="#ffee62" data-original="#99e6fc" style="" class=""/><path d="m78.63 393.1h-15.73c-5.26 0-9.53-4.27-9.53-9.54v-320.96c0-6.51-5.28-11.8-11.8-11.8h15.73c6.52 0 11.8 5.29 11.8 11.8v320.96c0 5.27 4.27 9.54 9.53 9.54z" fill="#ffcc33" data-original="#62dbfb" style="" class=""/><path d="m504.5 404.89v6.54c0 6.52-5.28 11.8-11.8 11.8h-15.73c6.52 0 11.8-5.28 11.8-11.8v-6.54c0-6.51-5.28-11.79-11.8-11.79h15.73c6.52 0 11.8 5.28 11.8 11.79z" fill="#ffcc33" data-original="#62dbfb" style="" class=""/><g><path d="m90.666 189.104c-4.142 0-7.5-3.357-7.5-7.5s3.358-7.5 7.5-7.5c37.205 0 64.826-15.663 92.358-52.373 16.126-21.501 31.699-41.771 44.956-53.489 18.72-16.548 41.011-24.938 66.253-24.938 22.815 0 40.886 5.466 60.425 18.278 10.059 6.596 19.049 13.114 27.742 19.418 9.362 6.788 18.204 13.2 27.175 18.804 36.039 22.511 70.243 25.872 87.425 25.872 4.142 0 7.5 3.357 7.5 7.5s-3.358 7.5-7.5 7.5c-18.787 0-56.16-3.657-95.372-28.149-9.411-5.879-18.457-12.438-28.034-19.383-8.553-6.202-17.398-12.615-27.163-19.019-17.139-11.237-32.262-15.821-52.2-15.821-21.776 0-40.198 6.927-56.318 21.176-12.188 10.774-27.872 31.227-42.891 51.251-30.276 40.37-62.461 58.373-104.356 58.373z" fill="#fb5f7a" data-original="#fb5f7a" style="" class=""/></g></g></g></svg>
