<svg height="512" viewBox="0 0 64 64" width="512" xmlns="http://www.w3.org/2000/svg"><g id="Image"><path d="m61 13v30h-58v-30a2.006 2.006 0 0 1 2-2h54a2.006 2.006 0 0 1 2 2z" fill="#a7a9ac"/><path d="m6 14h52v26h-52z" fill="#414042"/><path d="m31 40h27v-26c0 14.371-12.076 26-27 26z" fill="#3a3a3b"/><path d="m3 43v4a2.006 2.006 0 0 0 2 2h54a2.006 2.006 0 0 0 2-2v-4z" fill="#d1d3d4"/><path d="m26 49h12v6h-12z" fill="#a7a9ac"/><path d="m21 55a2 2 0 0 0 -2 2v4h26v-4a2 2 0 0 0 -2-2z" fill="#d1d3d4"/><path d="m10 3h44v33h-44z" fill="#1a6fb0"/><path d="m13 6h38v22h-38z" fill="#d1e7f8"/><path d="m34.271 24.089-.001.001.001-.001-9.131-13.089-12.14 17h24z" fill="#5eac24"/><circle cx="35" cy="12" fill="#d80027" r="2"/><path d="m34.271 24.089 2.729 3.911h14l-9.95-12z" fill="#4e901e"/><path d="m26 49h12v2h-12z" fill="#808285"/><path d="m55 45h-2a1 1 0 0 0 0 2h2a1 1 0 0 0 0-2z" fill="#5eac24"/></g></svg>