<svg id="Capa_1" enable-background="new 0 0 512 512" height="512" viewBox="0 0 512 512" width="512" xmlns="http://www.w3.org/2000/svg"><g><g><path clip-rule="evenodd" d="m512 133.509-250.116-20.822-261.884 20.822v351.603c.321 11.185 9.578 20.267 20.85 20.267h470.27c11.476 0 20.879-9.403 20.879-20.88v-350.99z" fill="#eff6ff" fill-rule="evenodd"/></g><g><path clip-rule="evenodd" d="m460.546 176.524h-120.78c-4.497 0-8.177 3.68-8.177 8.177v34.751c0 4.497 3.679 8.148 8.177 8.148h120.78c4.497 0 8.177-3.65 8.177-8.148v-34.751c0-4.497-3.68-8.177-8.177-8.177z" fill="#ffd772" fill-rule="evenodd"/></g><g><path clip-rule="evenodd" d="m168.584 295.146 76.393 12.674v-94.208c0-2.161-1.781-3.942-3.942-3.942h-160.905c-2.161 0-3.942 1.781-3.942 3.942v90.354z" fill="#9fd4fe" fill-rule="evenodd"/></g><g><path clip-rule="evenodd" d="m463.729 423.785h-415.458c-2.774 0-5.023 2.249-5.023 5.023v28.298c0 2.745 2.249 4.994 5.023 4.994h415.458c2.745 0 4.994-2.249 4.994-4.994v-28.298c0-2.774-2.249-5.023-4.994-5.023z" fill="#ffd772" fill-rule="evenodd"/></g><g><path clip-rule="evenodd" d="m80.13 350.019h124.547l-36.094-54.872-30.983-47.046c-6.687-10.192-17.93-10.192-24.647 0l-36.765 55.865v42.111c0 2.16 1.782 3.942 3.942 3.942z" fill="#3bc3a4" fill-rule="evenodd"/></g><g><path clip-rule="evenodd" d="m168.584 295.146 36.094 54.872h36.357c2.161 0 3.942-1.781 3.942-3.942v-38.256l-27.129-41.234c-8.264-12.586-22.194-12.586-30.487 0z" fill="#3bc3a4" fill-rule="evenodd"/></g><g><path clip-rule="evenodd" d="m0 26.889v106.62h512v-106.036c0-11.477-9.403-20.851-20.879-20.851h-470.271c-11.272 0-20.529 9.053-20.85 20.267z" fill="#375e7d" fill-rule="evenodd"/></g><g><path clip-rule="evenodd" d="m40.883 70.051c0 11.068 9.053 20.092 20.091 20.092h133.862c11.038 0 20.091-9.024 20.091-20.092 0-11.039-9.053-20.062-20.091-20.062h-133.862c-11.038-.001-20.091 9.023-20.091 20.062z" fill="#eff6ff" fill-rule="evenodd"/></g><g><path clip-rule="evenodd" d="m274.237 70.051c0 11.097 8.994 20.092 20.091 20.092 11.068 0 20.062-8.994 20.062-20.092 0-11.068-8.994-20.062-20.062-20.062-11.097-.001-20.091 8.994-20.091 20.062z" fill="#eb5468" fill-rule="evenodd"/></g><g><path clip-rule="evenodd" d="m352.586 70.051c0 11.097 8.994 20.092 20.091 20.092 11.068 0 20.062-8.994 20.062-20.092 0-11.068-8.994-20.062-20.062-20.062-11.097-.001-20.091 8.994-20.091 20.062z" fill="#ffd772" fill-rule="evenodd"/></g><g><path clip-rule="evenodd" d="m430.935 70.051c0 11.097 8.994 20.092 20.091 20.092 11.068 0 20.062-8.994 20.062-20.092 0-11.068-8.994-20.062-20.062-20.062-11.097-.001-20.091 8.994-20.091 20.062z" fill="#00a887" fill-rule="evenodd"/></g><g><path clip-rule="evenodd" d="m123.204 240.625c11.272 17.726 18.193 41.614 18.193 67.897 0 14.835-2.19 28.882-6.132 41.497h69.413l-36.094-54.872-30.984-47.046c-3.854-5.87-9.228-8.382-14.396-7.476z" fill="#00a887" fill-rule="evenodd"/></g><g><path clip-rule="evenodd" d="m197.523 258.03c11.739 17.843 18.981 42.227 18.981 69.123 0 7.856-.642 15.536-1.811 22.866h26.34c2.161 0 3.942-1.781 3.942-3.942v-38.257l-27.129-41.234c-5.401-8.206-13.227-11.068-20.323-8.556z" fill="#00a887" fill-rule="evenodd"/></g><g><path clip-rule="evenodd" d="m471.088 70.051c0 11.097-8.994 20.092-20.062 20.092-11.097 0-20.091-8.994-20.091-20.092 0-11.068 8.994-20.062 20.091-20.062 11.068-.001 20.062 8.994 20.062 20.062zm-43.599 63.458h84.511v-106.036c0-11.477-9.403-20.851-20.879-20.851h-104.807c17.288 36.153 30.837 76.482 39.744 119.732.497 2.395.964 4.76 1.431 7.155z" fill="#2b4d66" fill-rule="evenodd"/></g><g><path clip-rule="evenodd" d="m512 133.509h-84.511c2.716 14.047 4.935 28.414 6.658 43.016h26.399c4.497 0 8.177 3.68 8.177 8.177v34.751c0 4.497-3.679 8.148-8.177 8.148h-22.544c.234 7.009.35 14.017.35 21.084 0 14.017-.467 27.86-1.372 41.497-1.168 17.463-3.066 34.576-5.607 51.309.409-.029.847-.029 1.285-.029 11.506 0 20.821 9.345 20.821 20.851s-9.315 20.851-20.821 20.851c-3.154 0-6.132-.701-8.79-1.927-3.271 14.543-7.096 28.765-11.389 42.549h51.25c2.745 0 4.994 2.249 4.994 5.023v28.298c0 2.745-2.249 4.994-4.994 4.994h-64.829c-6.045 15.039-12.674 29.495-19.887 43.279h112.107c11.476 0 20.879-9.403 20.879-20.88v-350.991z" fill="#d9eeff" fill-rule="evenodd"/></g><g><path clip-rule="evenodd" d="m468.723 184.701c0-4.497-3.679-8.177-8.177-8.177h-26.399c1.957 16.733 3.271 33.759 3.855 51.076h22.544c4.497 0 8.177-3.65 8.177-8.148z" fill="#fbba58" fill-rule="evenodd"/></g><g><path clip-rule="evenodd" d="m463.729 423.785h-51.25c-4.088 13.141-8.644 25.932-13.579 38.314h64.829c2.745 0 4.994-2.249 4.994-4.994v-28.298c0-2.773-2.249-5.022-4.994-5.022z" fill="#fbba58" fill-rule="evenodd"/></g><g><path d="m43.248 235.326c-4.268 0-7.726-3.459-7.726-7.726v-43.658c0-8.351 6.794-15.144 15.144-15.144h43.657c4.268 0 7.726 3.459 7.726 7.726s-3.459 7.726-7.726 7.726h-43.348v43.35c0 4.267-3.459 7.726-7.727 7.726z" fill="#375e7d"/></g><g><path d="m277.917 235.326c-4.268 0-7.726-3.459-7.726-7.726v-43.349h-43.348c-4.268 0-7.726-3.459-7.726-7.726s3.459-7.726 7.726-7.726h43.657c8.35 0 15.144 6.793 15.144 15.144v43.657c-.001 4.267-3.46 7.726-7.727 7.726z" fill="#375e7d"/></g><g><path d="m94.323 390.89h-43.657c-8.35 0-15.144-6.794-15.144-15.144v-43.658c0-4.267 3.459-7.726 7.726-7.726s7.726 3.459 7.726 7.726v43.35h43.348c4.268 0 7.726 3.459 7.726 7.726.001 4.267-3.457 7.726-7.725 7.726z" fill="#375e7d"/></g><g><path d="m270.499 390.89h-43.657c-4.268 0-7.726-3.459-7.726-7.726s3.459-7.726 7.726-7.726h43.348v-43.35c0-4.267 3.459-7.726 7.726-7.726s7.726 3.459 7.726 7.726v43.658c.001 8.351-6.793 15.144-15.143 15.144z" fill="#375e7d"/></g><g><path d="m468.722 297.908h-59.66c-4.268 0-7.726-3.459-7.726-7.726s3.459-7.726 7.726-7.726h59.66c4.268 0 7.726 3.459 7.726 7.726.001 4.267-3.458 7.726-7.726 7.726zm-101.36 0h-35.772c-4.268 0-7.726-3.459-7.726-7.726s3.459-7.726 7.726-7.726h35.773c4.268 0 7.726 3.459 7.726 7.726s-3.459 7.726-7.727 7.726z" fill="#2b4d66"/></g><g><path d="m468.722 370.039h-15.243c-4.268 0-7.726-3.459-7.726-7.726s3.459-7.726 7.726-7.726h15.243c4.268 0 7.726 3.459 7.726 7.726.001 4.267-3.458 7.726-7.726 7.726zm-56.914 0h-80.218c-4.268 0-7.726-3.459-7.726-7.726s3.459-7.726 7.726-7.726h80.218c4.268 0 7.726 3.459 7.726 7.726s-3.459 7.726-7.726 7.726z" fill="#2b4d66"/></g><g><path clip-rule="evenodd" d="m409.063 290.182c0-11.506-9.315-20.822-20.85-20.822-11.506 0-20.85 9.316-20.85 20.822 0 11.535 9.345 20.851 20.85 20.851 11.534 0 20.85-9.316 20.85-20.851z" fill="#eb5468" fill-rule="evenodd"/></g><g><path clip-rule="evenodd" d="m453.479 362.313c0-11.506-9.315-20.851-20.821-20.851-11.535 0-20.85 9.345-20.85 20.851s9.315 20.851 20.85 20.851c11.506 0 20.821-9.345 20.821-20.851z" fill="#eb5468" fill-rule="evenodd"/></g><g><path clip-rule="evenodd" d="m453.479 362.313c0-11.506-9.315-20.851-20.821-20.851-.438 0-.876 0-1.285.029-2.073 13.521-4.585 26.75-7.505 39.745 2.657 1.227 5.636 1.927 8.79 1.927 11.506.001 20.821-9.344 20.821-20.85z" fill="#e5384f" fill-rule="evenodd"/></g></g></svg>