<svg id="Capa_1" enable-background="new 0 0 512 512" height="512" viewBox="0 0 512 512" width="512" xmlns="http://www.w3.org/2000/svg"><g><path d="m299.784 456.523c0 8.534-6.918 15.453-15.453 15.453h-268.878c-8.535 0-15.453-6.918-15.453-15.453v-362.625l299.784-15.453z" fill="#edebed"/><path d="m327.599 93.9v362.625c0 8.53-6.923 15.453-15.453 15.453h-30.906c8.53 0 15.453-6.923 15.453-15.453v-20.606l-82.93-135.469 82.93-206.55z" fill="#dbd9dc"/><path d="m299.784 93.898h-3.091l-139.075 23.836-126.712-23.836h-30.906v-41.207c0-8.534 6.918-15.453 15.453-15.453h268.878c8.534 0 15.453 6.918 15.453 15.453z" fill="#c3aff0"/><path d="m327.599 52.693v41.207h-30.906v-41.207c0-8.54-6.923-15.453-15.453-15.453h30.906c8.53 0 15.453 6.912 15.453 15.453z" fill="#a69ded"/><path d="m296.693 435.92c0 2.845-2.306 5.151-5.151 5.151h-255.486c-2.845 0-5.151-2.306-5.151-5.151v-342.022h265.788z" fill="#fff"/><path d="m212.734 209.279h-145.772c-2.845 0-5.151-2.306-5.151-5.151v-74.173c0-2.845 2.306-5.151 5.151-5.151h193.675c2.845 0 5.151 2.306 5.151 5.151v36.057z" fill="#bde4ff"/><g fill="#dbd9dc"><path d="m149.892 309.722h-88.081c-4.267 0-7.726-3.459-7.726-7.726s3.459-7.726 7.726-7.726h88.081c4.267 0 7.726 3.459 7.726 7.726s-3.459 7.726-7.726 7.726z"/><path d="m149.892 278.817h-88.081c-4.267 0-7.726-3.459-7.726-7.726 0-4.268 3.459-7.726 7.726-7.726h88.081c4.267 0 7.726 3.459 7.726 7.726s-3.459 7.726-7.726 7.726z"/><path d="m160.194 247.911h-98.383c-4.267 0-7.726-3.459-7.726-7.726s3.459-7.726 7.726-7.726h98.383c4.267 0 7.726 3.459 7.726 7.726s-3.459 7.726-7.726 7.726z"/></g><path d="m61.811 417.892c-4.267 0-7.726-3.459-7.726-7.726v-15.453c0-4.268 3.459-7.726 7.726-7.726s7.726 3.459 7.726 7.726v15.453c0 4.267-3.459 7.726-7.726 7.726z" fill="#bde4ff"/><path d="m92.717 417.892c-4.267 0-7.726-3.459-7.726-7.726v-36.056c0-4.268 3.459-7.726 7.726-7.726s7.726 3.459 7.726 7.726v36.056c0 4.267-3.459 7.726-7.726 7.726z" fill="#fc8d94"/><path d="m154.528 417.892c-4.267 0-7.726-3.459-7.726-7.726v-77.264c0-4.268 3.459-7.726 7.726-7.726s7.726 3.459 7.726 7.726v77.264c0 4.267-3.459 7.726-7.726 7.726z" fill="#fc8d94"/><path d="m185.433 417.892c-4.267 0-7.726-3.459-7.726-7.726v-36.056c0-4.268 3.459-7.726 7.726-7.726s7.726 3.459 7.726 7.726v36.056c.001 4.267-3.459 7.726-7.726 7.726z" fill="#bde4ff"/><path d="m123.622 417.892c-4.267 0-7.726-3.459-7.726-7.726v-56.66c0-4.268 3.459-7.726 7.726-7.726s7.726 3.459 7.726 7.726v56.66c.001 4.267-3.459 7.726-7.726 7.726z" fill="#bde4ff"/><path d="m379.016 364.071h75.26v30.906h-75.26z" fill="#edebed" transform="matrix(.707 .707 -.707 .707 390.397 -183.453)"/><path d="m224.509 372.642c-51.094-51.094-51.094-133.933 0-185.026 21.609-21.609 48.896-34.079 77.058-37.41 36.076.415 77.073 20.336 106.558 49.821 0 0 59.751 80.103-8.928 165.688 0 0-41.98 43.01-97.608 44.339-28.17-3.328-55.466-15.798-77.08-37.412z" fill="#ffe07d"/><path d="m447.852 280.126c0 33.481-12.764 66.962-38.313 92.511s-59.03 38.323-92.511 38.323c-5.161 0-10.322-.29-15.453-.908 28.155-3.327 55.445-15.802 77.058-37.415 25.549-25.549 38.313-59.03 38.313-92.511s-12.764-66.962-38.313-92.511c-21.613-21.613-48.903-34.079-77.058-37.406 5.13-.618 10.292-.917 15.453-.917 33.481 0 66.962 12.774 92.511 38.323s38.313 59.03 38.313 92.511z" fill="#ffd064"/><path d="m246.363 350.788c-39.024-39.024-39.024-102.295 0-141.319 39.024-39.024 102.295-39.024 141.319 0 39.024 39.024 39.024 102.295 0 141.319-39.024 39.024-102.295 39.024-141.319 0z" fill="#fff"/><path d="m357.989 328.78h-20.604c-2.845 0-5.151-2.306-5.151-5.151v-87.566c0-2.845 2.306-5.151 5.151-5.151h20.604c2.845 0 5.151 2.306 5.151 5.151v87.566c0 2.845-2.306 5.151-5.151 5.151z" fill="#fc8d94"/><path d="m296.178 328.78h-20.604c-2.845 0-5.151-2.306-5.151-5.151v-46.358c0-2.845 2.306-5.151 5.151-5.151h20.604c2.845 0 5.151 2.306 5.151 5.151v46.358c0 2.845-2.306 5.151-5.151 5.151z" fill="#bde4ff"/><path d="m459.365 465.731-45.786-45.786c-2.007-2.007-2.007-5.261 0-7.268l15.582-15.582 8.496-5.455 55.673 36.271c12.041 12.041 17.064 22.341 5.022 34.382 0 0-3.777 5.924-9.246 11.434-10.275 2.727-21.683.062-29.741-7.996z" fill="#d19a6e"/><path d="m502.969 465.729c-3.985 3.985-8.794 6.659-13.864 7.999 2.732-10.278.067-21.694-7.99-29.751l-27.614-27.614v-17.425l21.854-4.429 27.614 27.614c12.041 12.042 12.041 31.564 0 43.606z" fill="#bc845e"/><path d="m453.503 416.364-21.752 21.752-18.172-18.172c-2.009-2.009-2.009-5.264 0-7.263l18.167-18.172 25.142 2.797z" fill="#ffe07d"/><path d="m475.353 394.508-21.853 21.853-18.168-18.168c-1.989-1.989-5.194-2.018-7.197-.073l21.773-21.788c2.011-2.011 5.267-2.003 7.277.007z" fill="#ffd064"/></g></svg>