<?xml version="1.0" encoding="iso-8859-1"?>
<!-- Generator: Adobe Illustrator 19.0.0, SVG Export Plug-In . SVG Version: 6.00 Build 0)  -->
<svg version="1.1" id="Capa_1" xmlns="http://www.w3.org/2000/svg" xmlns:xlink="http://www.w3.org/1999/xlink" x="0px" y="0px"
	 viewBox="0 0 512 512" style="enable-background:new 0 0 512 512;" xml:space="preserve">
<path style="fill:#E6E6E6;" d="M512,256c0,0-114.615,148.281-256,148.281S0,256,0,256s114.615-148.281,256-148.281S512,256,512,256z
	"/>
<path style="fill:#CCCCCC;" d="M512,256c0,0-114.615,148.281-256,148.281c0-120.196,0-243.723,0-296.563
	C397.385,107.719,512,256,512,256z"/>
<circle style="fill:#6AECF0;" cx="256" cy="256" r="148.28"/>
<path style="fill:#01D9DF;" d="M404.281,256c0,81.894-66.388,148.281-148.281,148.281c0-97.32,0-248.298,0-296.563
	C337.894,107.719,404.281,174.107,404.281,256z"/>
<circle style="fill:#4D4D4D;" cx="256" cy="256" r="61.907"/>
<path style="fill:#333333;" d="M317.907,256c0,34.19-27.717,61.907-61.907,61.907c0-57.269,0-99.588,0-123.814
	C290.19,194.094,317.907,221.81,317.907,256z"/>
<path style="fill:#FFA900;" d="M405.428,119.261C374.825,85.841,333.49,63.42,289.036,56.13l4.855-29.604
	c51.066,8.375,98.535,34.114,133.661,72.477L405.428,119.261z"/>
<path style="fill:#FBBF00;" d="M106.572,119.261l-22.125-20.26c35.126-38.362,82.595-64.102,133.661-72.477l4.855,29.604
	C178.51,63.42,137.175,85.841,106.572,119.261z"/>
<path style="fill:#FFA900;" d="M293.892,485.475l-4.855-29.604c44.454-7.29,85.789-29.71,116.392-63.132L427.555,413
	C392.427,451.361,344.958,477.102,293.892,485.475z"/>
<path style="fill:#FBBF00;" d="M218.108,485.475c-51.066-8.374-98.535-34.114-133.662-72.477l22.126-20.26
	c30.603,33.421,71.938,55.842,116.392,63.132L218.108,485.475z"/>
<g>
</g>
<g>
</g>
<g>
</g>
<g>
</g>
<g>
</g>
<g>
</g>
<g>
</g>
<g>
</g>
<g>
</g>
<g>
</g>
<g>
</g>
<g>
</g>
<g>
</g>
<g>
</g>
<g>
</g>
</svg>
