<svg id="Flat" height="512" viewBox="0 0 512 512" width="512" xmlns="http://www.w3.org/2000/svg"><path d="m448 488h-200a40.045 40.045 0 0 1 -40-40v-8a24.027 24.027 0 0 0 -24-24h-120a8 8 0 0 1 0-16h120a40.045 40.045 0 0 1 40 40v8a24.027 24.027 0 0 0 24 24h200a8 8 0 0 1 0 16z" fill="#757c80"/><path d="m216.735 333.088-22.627 22.628-130.108 28.284 28.284-130.108 22.628-22.627z" fill="#fae8d8"/><path d="m119.762 371.88-55.762 12.12 12.12-55.762z" fill="#757c80"/><path d="m167.362 72.638h144v272h-144z" fill="#298057" transform="matrix(.707 .707 -.707 .707 217.637 -108.146)"/><path d="m294.642 53.358h144a0 0 0 0 1 0 0v24a32 32 0 0 1 -32 32h-80a32 32 0 0 1 -32-32v-24a0 0 0 0 1 0 0z" fill="#b5b8b9" transform="matrix(-.707 -.707 .707 -.707 568.368 398.141)"/><path d="m89.912 192.15h247.996v16h-247.996z" fill="#25744e" transform="matrix(.707 -.707 .707 .707 -78.874 209.893)"/><path d="m123.852 226.09h247.997v16h-247.997z" fill="#25744e" transform="matrix(.707 -.707 .707 .707 -92.933 243.835)"/><path d="m263.529 88.471h144v48h-144z" fill="#fcb442" transform="matrix(.707 .707 -.707 .707 177.803 -204.313)"/></svg>