<svg id="Capa_1" enable-background="new 0 0 511.997 511.997" height="512" viewBox="0 0 511.997 511.997" width="512" xmlns="http://www.w3.org/2000/svg"><g><path d="m255.997 0c-123.098 0-222.889 99.791-222.889 222.889 0 76.94 38.984 144.774 98.277 184.828-.211 20.596-3.682 58.759-24.075 88.876-4.733 6.989.816 16.307 9.201 15.333 30.836-3.581 85.304-17.152 118.636-67.127 6.866.637 13.818.978 20.85.978 123.099 0 222.89-99.791 222.89-222.889 0-123.097-99.791-222.888-222.89-222.888z" fill="#f9f3f1"/><path d="m478.889 222.892c0 123.099-99.793 222.882-222.892 222.882-7.035 0-13.987-.339-20.847-.977-33.333 49.974-87.801 63.55-118.635 67.129-8.176.957-13.648-7.868-9.544-14.79 30.457-6.032 78.637-26.335 109.512-66.374 3.851-4.993 9.912-7.721 16.21-7.422 3.475.165 6.972.249 10.489.249 123.099 0 217.123-90.959 217.123-214.058 0-70.471-32.706-133.301-83.759-174.132 61.575 39.649 102.343 108.814 102.343 187.493z" fill="#efe2dd"/><path d="m363.466 182.902h-49.75c-9.793 0-17.732-7.939-17.732-17.732v-49.75c0-9.793-7.939-17.732-17.732-17.732h-44.512c-9.793 0-17.732 7.939-17.732 17.732v49.75c0 9.793-7.939 17.732-17.732 17.732h-49.75c-9.793 0-17.732 7.939-17.732 17.732v44.512c0 9.793 7.939 17.732 17.732 17.732h49.75c9.793 0 17.732 7.939 17.732 17.732v49.749c0 9.793 7.939 17.732 17.732 17.732h44.512c9.793 0 17.732-7.939 17.732-17.732v-49.749c0-9.793 7.939-17.732 17.732-17.732h49.75c9.793 0 17.732-7.939 17.732-17.732v-44.512c0-9.793-7.939-17.732-17.732-17.732z" fill="#ee6161"/><g fill="#e94444"><path d="m293.146 262.879h20.57c-9.791 0-17.731 7.94-17.731 17.731v49.748c0 9.791-7.94 17.731-17.731 17.731h-20.57c9.791 0 17.731-7.94 17.731-17.731v-49.748c0-9.791 7.94-17.731 17.731-17.731z"/><path d="m313.716 182.904h-20.57c-9.791 0-17.731-7.94-17.731-17.731v-49.758c0-9.791-7.94-17.731-17.731-17.731h20.57c9.791 0 17.731 7.94 17.731 17.731v49.758c0 9.792 7.939 17.731 17.731 17.731z"/><path d="m381.194 200.635v44.513c0 9.791-7.94 17.731-17.731 17.731h-20.57c9.791 0 17.731-7.94 17.731-17.731v-44.513c0-9.791-7.94-17.731-17.731-17.731h20.57c9.791 0 17.731 7.94 17.731 17.731z"/></g></g></svg>