<svg id="Capa_1" enable-background="new 0 0 512 512" height="512" viewBox="0 0 512 512" width="512" xmlns="http://www.w3.org/2000/svg"><g><g fill="#d5e8fe"><path d="m238.868 176.263h30.001v84.914h-30.001z" transform="matrix(.514 -.858 .858 .514 -64.287 323.908)"/><path d="m352.68 270.352h29.999v126.335h-29.999z" transform="matrix(.832 -.555 .555 .832 -123.252 259.967)"/><path d="m211.411 98.28h84.914v30.001h-84.914z" transform="matrix(.857 -.515 .515 .857 -22.099 146.804)"/><path d="m248.921 300.998h74.157v30.003h-74.157z" transform="matrix(.447 -.894 .894 .447 -124.542 430.487)"/><path d="m344.527 226.001h92.946v29.998h-92.946z" transform="matrix(.981 -.196 .196 .981 -39.702 81.444)"/></g><path d="m436 512c-41.353 0-75-34.647-75-76s33.647-75 75-75 76 33.647 76 75-34.647 76-76 76z" fill="#ff3b7f"/><path d="m80.396 55.537h29.997v79.715h-29.997z" fill="#edf5ff" transform="matrix(.707 -.707 .707 .707 -39.514 95.395)"/><path d="m55.537 221.607h79.715v29.997h-79.715z" fill="#edf5ff" transform="matrix(.707 -.707 .707 .707 -139.365 136.754)"/><circle cx="166" cy="166" fill="#ff6e83" r="75"/><path d="m241 166c0-41.353-33.647-75-75-75v150c41.353 0 75-33.647 75-75z" fill="#ff3b7f"/><path d="m316 301c-24.814 0-45-20.186-45-45s20.186-45 45-45 45 20.186 45 45-20.186 45-45 45z" fill="#5dacff"/><path d="m256 421c-24.814 0-45-20.186-45-45s20.186-45 45-45 45 20.186 45 45-20.186 45-45 45z" fill="#5dacff"/><path d="m316 121c-24.814 0-45-20.186-45-45s20.186-45 45-45 45 20.186 45 45-20.186 45-45 45z" fill="#5dacff"/><path d="m466 271c-24.814 0-45-20.186-45-45s20.186-45 45-45 46 20.186 46 45-21.186 45-46 45z" fill="#5dacff"/><path d="m46 331c-24.814 0-46-20.186-46-45s21.186-45 46-45 45 20.186 45 45-20.186 45-45 45z" fill="#b3e4ff"/><path d="m46 91c-24.814 0-46-20.186-46-45s21.186-46 46-46 45 21.186 45 46-20.186 45-45 45z" fill="#b3e4ff"/></g></svg>