<svg height="512" viewBox="0 0 512 512" width="512" xmlns="http://www.w3.org/2000/svg"><g id="Flat"><rect fill="#396795" height="144" rx="24" width="176" x="24" y="192"/><rect fill="#8acce7" height="256" rx="32" width="224" x="264" y="24"/><path d="m296 56h128v128h-128z" fill="#eedc9a"/><circle cx="456" cy="88" fill="#395166" r="8"/><circle cx="456" cy="120" fill="#395166" r="8"/><circle cx="456" cy="152" fill="#395166" r="8"/><path d="m320 80h32v16h-32z" fill="#396795"/><path d="m368 80h16v16h-16z" fill="#396795"/><path d="m392 80h16v16h-16z" fill="#396795"/><path d="m320 112h32v16h-32z" fill="#396795"/><path d="m368 112h16v16h-16z" fill="#396795"/><path d="m392 112h16v16h-16z" fill="#396795"/><path d="m320 144h32v16h-32z" fill="#396795"/><path d="m368 144h16v16h-16z" fill="#396795"/><path d="m392 144h16v16h-16z" fill="#396795"/><path d="m296 208h48v32h-48z" fill="#c4d4e0"/><path d="m376 208h48v32h-48z" fill="#d14547"/><path d="m264 128-22.62742 22.62742a32 32 0 0 0 -9.37258 22.62741v18.74517h32z" fill="#379ec3"/><path d="m384 488h-200a88.09957 88.09957 0 0 1 -88-88v-64h32v64a56.06353 56.06353 0 0 0 56 56h200a56 56 0 0 0 0-112h-64a88.09957 88.09957 0 0 1 -88-88v-64h32v64a56.06353 56.06353 0 0 0 56 56h64a88 88 0 0 1 0 176z" fill="#395166"/><path d="m96 336h-27.69995a31.79874 31.79874 0 0 1 -4.30005-16v-112a31.79841 31.79841 0 0 1 4.3-16h27.7a16.02119 16.02119 0 0 0 -16 16v112a16.02119 16.02119 0 0 0 16 16z" fill="#26507a"/><g fill="#2d80b3"><path d="m40 208h16v16h-16z"/><path d="m96 208h16v16h-16z"/><path d="m120 208h16v16h-16z"/><path d="m144 208h16v16h-16z"/><path d="m168 208h16v16h-16z"/><path d="m40 304h16v16h-16z"/><path d="m96 304h16v16h-16z"/><path d="m120 304h16v16h-16z"/><path d="m144 304h16v16h-16z"/><path d="m168 304h16v16h-16z"/></g></g></svg>