<svg id="Capa_1" enable-background="new 0 0 510.001 510.001" height="512" viewBox="0 0 510.001 510.001" width="512" xmlns="http://www.w3.org/2000/svg"><path d="m482.478 112.092-349.5 349.5-36.45-26.91-12.2-9.01-9.01-12.21-26.91-36.429 349.5-349.51z" fill="#3ec3ff"/><path d="m482.478 112.092-349.5 349.5-36.45-26.91-12.2-9.01 355.87-355.859z" fill="#0789e0"/><path d="m422.138 109.063-325.61 325.619-12.2-9.01-9.01-12.21 325.61-325.609z" fill="#fff"/><path d="m422.138 109.063-325.61 325.619-12.2-9.01 327.21-327.21z" fill="#a6cfe7"/><path d="m132.968 461.592-64.8 28.41-42.88 18.47c-7.51 3.23-15.07 1.05-19.94-3.82-4.87-4.87-7.05-12.43-3.82-19.94l18.47-42.88 28.4-64.8 42.29 42.28z" fill="#ffcebf"/><path d="m132.968 461.592-64.8 28.41-42.88 18.47c-7.51 3.23-15.07 1.05-19.94-3.82l85.34-85.34z" fill="#ffb99c"/><path d="m68.168 490.003-42.88 18.47c-7.51 3.23-15.07 1.05-19.94-3.82-4.87-4.87-7.05-12.43-3.82-19.94l18.47-42.88 24.09 24.09z" fill="#435d7a"/><path d="m68.168 490.003-42.88 18.47c-7.51 3.23-15.07 1.05-19.94-3.82l38.74-38.73z" fill="#2d3e53"/><path d="m501.098 93.472-40.85 40.85-42.28-42.29-42.28-42.28 40.84-40.85c11.87-11.87 31.12-11.87 42.99 0l20.79 20.79 20.79 20.79c11.87 11.871 11.87 31.121 0 42.99z" fill="#fd3186"/><path d="m501.098 93.472-40.85 40.85-42.28-42.29 62.34-62.34 20.79 20.79c11.87 11.871 11.87 31.121 0 42.99z" fill="#c7318b"/><path d="m471.468 123.103-22.44 22.44-42.28-42.29-42.28-42.281 22.43-22.439 42.29 42.29z" fill="#ffeb95"/><path d="m423.243 83.282h31.731v59.797h-31.731z" fill="#ffa84a" transform="matrix(.707 -.707 .707 .707 48.582 343.646)"/><path d="m501.338 421.932-81.59 81.59c-8.56 8.56-22.43 8.56-30.99 0l-191.14-191.14-191.14-191.14c-8.56-8.56-8.56-22.43 0-30.99l81.59-81.59c8.55-8.55 22.43-8.55 30.98 0l382.29 382.29c8.55 8.551 8.55 22.43 0 30.98z" fill="#ffeb95"/><path d="m501.338 421.932-81.59 81.59c-8.56 8.56-22.43 8.56-30.99 0l-191.14-191.14 112.58-112.57 191.14 191.14c8.55 8.551 8.55 22.43 0 30.98z" fill="#ffa84a"/><path d="m188.208 77.823-38.62 38.62c-5.816 5.835-15.339 5.872-21.21 0-5.86-5.86-5.86-15.36 0-21.22l38.62-38.61z" fill="#fd3186"/><path d="m254.508 144.123-38.62 38.61c-5.858 5.857-15.334 5.876-21.21 0-5.86-5.86-5.86-15.35 0-21.21l38.62-38.61z" fill="#fd3186"/><path d="m387.098 276.712-38.62 38.61c-5.859 5.859-15.338 5.872-21.21 0-5.86-5.85-5.86-15.35 0-21.21l38.62-38.61z" fill="#c7318b"/><path d="m320.798 210.412-38.62 38.62c-5.817 5.837-15.34 5.87-21.21 0-5.86-5.86-5.86-15.36 0-21.21l38.62-38.62z" fill="#fd3186"/><g fill="#c7318b"><path d="m320.798 210.412-38.62 38.62c-5.817 5.837-15.34 5.87-21.21 0l49.23-49.22z"/><path d="m453.388 343.003-38.61 38.62c-5.842 5.842-15.356 5.864-21.22 0-5.86-5.86-5.86-15.36 0-21.21l38.62-38.62z"/></g></svg>