<svg id="Capa_1" enable-background="new 0 0 512 512" height="512" viewBox="0 0 512 512" width="512" xmlns="http://www.w3.org/2000/svg"><g><path d="m363 106.208h-318v269h422v-269z" fill="#fcf5f5"/><path d="m405 284.208-68-55-60 9-78-45-156 125v100h423v-202z" fill="#fc0"/><g><g><path d="m467 106.208h-104-107v269h211z" fill="#ebe1dd"/></g></g><g><path d="m466 216.208-61 68-68-55-60 9-21-12.115v192.115h210z" fill="#ff9e22"/></g><g><path d="m30 91.208v284h30v-254h196l10-15-10-15z" fill="#b7b5e9"/><path d="m256 91.208v30h196v254h30v-284z" fill="#9e9be1"/></g><path d="m90 151.208h30v30h-30z" fill="#fc0"/><g><g><g><path d="m401.138 102.34-145.138 144.868v51h51.002l144.957-144.957z" fill="#72bfee"/></g></g><g><path d="m445.685 57.792-44.547 44.548 25.504 25.504 28.796-13.309 15.752-31.239z" fill="#5f5ace"/><path d="m496.597 108.704-25.407-25.408-44.548 44.548 25.317 25.407z" fill="#463fc7"/></g><g><path d="m426.594 127.795-170.594 170.413h51.002l144.957-144.957z" fill="#5289d9"/></g></g><g><path d="m0 375.208h512v79h-512z" fill="#5f5ace"/><path d="m256 375.208h256v79h-256z" fill="#463fc7"/></g></g></svg>